<svg width="46px" height="45px" viewBox="0 0 46 45" xmlns="http://www.w3.org/2000/svg" xmlns:xlink="http://www.w3.org/1999/xlink">
    <style type="text/css">
        .st0 { fill-rule:evenodd; clip-rule:evenodd; }
        .st1 { fill:#FFFFFF; }
    </style>
    <g id="Group">
        <path id="Rectangle-5" class="st0" d="M0,0h46v18.9V45H0V0z" fill="#000000"/>
    </g>
<g>
	<path class="st1" d="M28.8,31.5c-1,0-2-0.2-3-0.7c-0.7-0.4-1.5-0.9-2-1.6c-0.9-1.1-1.5-2.6-1.5-4.4c0-2.8,1.3-4.7,3.1-5.8
		c0.8-0.4,1.6-0.7,2.6-0.9c0.3,0,0.5-0.1,0.8-0.1c2.2,0,4.3,1.1,5.5,3.1l2.2-1.3c-1.6-3-4.6-4.5-7.7-4.5c-0.2,0-0.5,0-0.7,0
		c-0.9,0.1-1.7,0.2-2.6,0.5c-3.4,1.2-6.1,4.3-6.1,8.8c0,2.5,0.8,4.6,2.2,6.1c0.6,0.7,1.3,1.3,2.1,1.8c1.6,1,3.4,1.4,5.2,1.4
		c3.1,0,6.1-1.5,7.7-4.5l-2.2-1.3C33.1,30.3,31,31.5,28.8,31.5z"/>
	<path class="st1" d="M27.9-3.1v18.5c-0.9,0.1-1.7,0.2-2.6,0.5v-19H27.9z"/>
	<path class="st1" d="M27.9,15.4v9.3c0,0.1,0,0.1,0,0.2c-0.1,2.2-0.8,4.3-2.2,5.8c-0.6,0.7-1.3,1.4-2.2,1.9
		c-1.4,0.9-3.1,1.4-4.9,1.4c-5.1,0-9.3-4.3-9.3-9.4c0-5.2,4.1-9.4,9.3-9.4c0.1,0,0.1,0,0.2,0v2.6c-0.1,0-0.1,0-0.2,0
		c-3.7,0-6.7,3.1-6.7,6.8s3,6.8,6.7,6.8c1,0,1.9-0.2,2.8-0.6c0.9-0.4,1.6-1,2.3-1.7c1-1.1,1.6-2.6,1.6-4.3c0-0.1,0-0.1,0-0.2
		c0-0.1,0-0.3,0-0.4v-8.3C26.2,15.6,27,15.4,27.9,15.4z"/>
</g>
</svg>
